<svg height="512" viewBox="0 0 128 128" width="512" xmlns="http://www.w3.org/2000/svg" xmlns:xlink="http://www.w3.org/1999/xlink"><linearGradient id="a" gradientUnits="userSpaceOnUse" x1="105.106" x2="22.891" y1="108.863" y2="26.648"><stop offset="0" stop-color="#d9176c"/><stop offset="1" stop-color="#fdbd40"/></linearGradient><path d="m110.75 67.332v.744a1.75 1.75 0 0 1 -3.5 0v-.744a1.75 1.75 0 0 1 3.5 0zm0-28.722v18.02a1.75 1.75 0 0 1 -3.5 0v-9.25h-86.5v50.53a9.351 9.351 0 0 0 9.34 9.34h67.82a9.351 9.351 0 0 0 9.34-9.34v-19.477a1.75 1.75 0 1 1 3.5 0v19.477a12.855 12.855 0 0 1 -12.84 12.84h-67.82a12.855 12.855 0 0 1 -12.84-12.84v-59.3a12.853 12.853 0 0 1 11.28-12.736v-2.214a6.418 6.418 0 0 1 6.41-6.41 6.427 6.427 0 0 1 6.41 6.41v2.11h6.56v-2.11a6.405 6.405 0 1 1 12.81 0v2.11h6.56v-2.11a6.418 6.418 0 0 1 6.41-6.41 6.41 6.41 0 0 1 6.4 6.41v2.11h6.56v-2.11a6.417 6.417 0 0 1 6.41-6.41 6.427 6.427 0 0 1 6.41 6.41v2.214a12.853 12.853 0 0 1 11.28 12.736zm-20.6-7.23a2.91 2.91 0 0 0 5.82 0v-7.72a2.928 2.928 0 0 0 -2.91-2.91 2.914 2.914 0 0 0 -2.91 2.91zm-19.37 0a2.905 2.905 0 1 0 5.81 0v-7.72a2.905 2.905 0 1 0 -5.81 0zm-19.37 0a2.905 2.905 0 1 0 5.81 0v-7.72a2.905 2.905 0 1 0 -5.81 0zm-19.38 0a2.91 2.91 0 0 0 5.82 0v-7.72a2.928 2.928 0 0 0 -2.91-2.91 2.913 2.913 0 0 0 -2.91 2.91zm-11.28 7.23v5.267h86.5v-5.267a9.348 9.348 0 0 0 -7.78-9.2v1.97a6.41 6.41 0 0 1 -12.82 0v-2.11h-6.56v2.11a6.405 6.405 0 1 1 -12.81 0v-2.11h-6.56v2.11a6.405 6.405 0 1 1 -12.81 0v-2.11h-6.56v2.11a6.41 6.41 0 0 1 -12.82 0v-1.969a9.348 9.348 0 0 0 -7.78 9.199zm25.574 29.231a4.646 4.646 0 0 1 -4.64 4.64h-7.066a4.646 4.646 0 0 1 -4.64-4.64v-7.066a4.646 4.646 0 0 1 4.64-4.64h7.066a4.646 4.646 0 0 1 4.64 4.64zm-3.5-7.066a1.141 1.141 0 0 0 -1.14-1.14h-7.066a1.141 1.141 0 0 0 -1.14 1.14v7.066a1.141 1.141 0 0 0 1.14 1.14h7.066a1.141 1.141 0 0 0 1.14-1.14zm29.349 7.066a4.646 4.646 0 0 1 -4.64 4.64h-7.066a4.646 4.646 0 0 1 -4.64-4.64v-7.066a4.646 4.646 0 0 1 4.64-4.64h7.066a4.646 4.646 0 0 1 4.64 4.64zm-3.5-7.066a1.141 1.141 0 0 0 -1.14-1.14h-7.066a1.141 1.141 0 0 0 -1.14 1.14v7.066a1.141 1.141 0 0 0 1.14 1.14h7.066a1.141 1.141 0 0 0 1.14-1.14zm29.452-2.246a1.751 1.751 0 0 0 -2.475 0l-7.85 7.846-3.756-3.756a1.75 1.75 0 0 0 -2.474 2.475l4.993 4.993a1.749 1.749 0 0 0 2.475 0l9.087-9.087a1.749 1.749 0 0 0 0-2.471zm-51.8 26.352v7.066a4.646 4.646 0 0 1 -4.64 4.64h-7.067a4.646 4.646 0 0 1 -4.64-4.64v-7.066a4.646 4.646 0 0 1 4.64-4.64h7.066a4.646 4.646 0 0 1 4.64 4.64zm-3.5 0a1.141 1.141 0 0 0 -1.14-1.14h-7.067a1.141 1.141 0 0 0 -1.14 1.14v7.066a1.141 1.141 0 0 0 1.14 1.14h7.066a1.141 1.141 0 0 0 1.14-1.14zm29.349 0v7.066a4.646 4.646 0 0 1 -4.64 4.64h-7.067a4.646 4.646 0 0 1 -4.64-4.64v-7.066a4.646 4.646 0 0 1 4.64-4.64h7.066a4.646 4.646 0 0 1 4.64 4.64zm-3.5 0a1.141 1.141 0 0 0 -1.14-1.14h-7.067a1.141 1.141 0 0 0 -1.14 1.14v7.066a1.141 1.141 0 0 0 1.14 1.14h7.066a1.141 1.141 0 0 0 1.14-1.14zm24.709-4.64a4.646 4.646 0 0 1 4.64 4.64v7.066a4.646 4.646 0 0 1 -4.64 4.64h-7.067a4.646 4.646 0 0 1 -4.64-4.64v-7.066a4.646 4.646 0 0 1 4.64-4.64zm0 3.5h-7.067a1.141 1.141 0 0 0 -1.14 1.14v7.066a1.141 1.141 0 0 0 1.14 1.14h7.066a1.141 1.141 0 0 0 1.14-1.14v-7.066a1.141 1.141 0 0 0 -1.14-1.14z" fill="url(#a)"/></svg>